{"title":"Sex Pot R5 XVID.FEEL-FREE","uid":5712595,"size":925059018,"categoryP":"video","categoryS":"movies","magnet":"?xt=urn:btih:6d5980255adb3b8b2b58bf56fc1abb8248969dc4&amp;dn=Sex+Pot+R5+XVID.FEEL-FREE&amp;tr=udp%3A%2F%2Ftracker.openbittorrent.com%3A80&amp;tr=udp%3A%2F%2Fopen.demonii.com%3A1337&amp;tr=udp%3A%2F%2Ftracker.coppersurfer.tk%3A6969&amp;tr=udp%3A%2F%2Fexodus.desync.com%3A6969","seeders":1,"leechers":0,"uploader":"trev1954","files":9,"time":1279962659,"description":"Sex Pot R5 XVID.FEEL-FREE\n\nGenre:Adventure | Comedy\nLanguage:English\nIMDb:http://www.imdb.com/title/tt1473801/\nSource:DVDR5\nEncoder: Tony2\n............................................\nGeneral\nComplete name : Sex Pot R5 XVID.FEEL-FREE\nFormat : AVI\nFormat/Info : Audio Video Interleave\nFile size : 882 MiB\nDuration : 1h 31mn\nOverall bit rate : 1 340 Kbps\n.............................................\nVideo\nFormat : xvid\nCodec ID : xvid\nDuration : 1h 31mn\nBit rate : 1 199 Kbps\nWidth : 652 pixels\nHeight : 352 pixels\nDisplay aspect ratio : 1.852\nFrame rate : 25.000 fps\nResolution : 24 bits\nBits/(Pixel*Frame) : 0.209\nStream size : 789 MiB (89%)\n.............................................\nAudio\nID : 1\nFormat : MPEG Audio\nFormat version : Version 1\nFormat profile : Layer 3\nFormat settings, Mode : Joint stereo / MS Stereo\nCodec ID : 55\nCodec ID/Hint : MP3\nDuration : 1h 31mn\nBit rate mode : Constant\nBit rate : 128 Kbps\nChannel(s) : 2 channels\nSampling rate : 48.0 KHz\nResolution : 16 bits\nStream size : 84.2 MiB (10%)\nAlignment : Aligned on interleaves\nInterleave, duration : 24 ms (0.60 video frame)\nInterleave, preload duration : 24 ms\n.............................................\nPlot:\nTwo potheads find a stash of weed that makes women very horny","torrent":{"xt":"urn:btih:6d5980255adb3b8b2b58bf56fc1abb8248969dc4","amp;dn":"Sex+Pot+R5+XVID.FEEL-FREE","amp;tr":["udp%3A%2F%2Ftracker.openbittorrent.com%3A80","udp%3A%2F%2Fopen.demonii.com%3A1337","udp%3A%2F%2Ftracker.coppersurfer.tk%3A6969","udp%3A%2F%2Fexodus.desync.com%3A6969"],"infoHash":"6d5980255adb3b8b2b58bf56fc1abb8248969dc4","infoHashBuffer":{"type":"Buffer","data":[109,89,128,37,90,219,59,139,43,88,191,86,252,26,187,130,72,150,157,196]},"announce":[],"urlList":[]}}